<svg xmlns="http://www.w3.org/2000/svg" width="47" height="47" viewBox="0 0 47 47">
  <g id="behance" transform="translate(-1027 -3964)">
    <g id="Rectangle_24" data-name="Rectangle 24" transform="translate(1027 3964)" fill="none" stroke="#eff6f6" stroke-width="1">
      <rect width="47" height="47" rx="23.5" stroke="none"/>
      <rect x="0.5" y="0.5" width="46" height="46" rx="23" fill="none"/>
    </g>
    <g id="free-icon-behance-733594" transform="translate(1025.828 3867.582)">
      <g id="Group_18" data-name="Group 18" transform="translate(11.172 111.418)">
        <g id="Group_17" data-name="Group 17">
          <path id="Path_3" data-name="Path 3" d="M11.414,103.818a4.161,4.161,0,0,0,1.309-.961,3.732,3.732,0,0,0,.793-2.492,4.264,4.264,0,0,0-.786-2.582q-1.311-1.758-4.445-1.8H0v16.914H7.726a12.081,12.081,0,0,0,2.423-.227,4.765,4.765,0,0,0,1.937-.85,4.69,4.69,0,0,0,1.214-1.33,4.887,4.887,0,0,0,.765-2.7,4.437,4.437,0,0,0-.668-2.478A3.854,3.854,0,0,0,11.414,103.818Zm-8-4.9H7.15a6.579,6.579,0,0,1,2.027.264,1.517,1.517,0,0,1,.921,1.564,1.592,1.592,0,0,1-.7,1.484,3.5,3.5,0,0,1-1.814.42H3.418Zm5.9,10.743a4.087,4.087,0,0,1-1.738.3H3.418v-4.511H7.639a4.405,4.405,0,0,1,1.717.284,1.814,1.814,0,0,1,1.091,1.816A2.126,2.126,0,0,1,9.32,109.66Z" transform="translate(0 -95.979)" fill="#e9f1ff"/>
          <rect id="Rectangle_32" data-name="Rectangle 32" width="7.348" height="2.105" transform="translate(17.73 0.789)" fill="#e9f1ff"/>
          <path id="Path_4" data-name="Path 4" d="M292.336,176.2a6.033,6.033,0,0,0-1.013-2.586,5.105,5.105,0,0,0-2.189-1.85,7.245,7.245,0,0,0-2.983-.586,6.173,6.173,0,0,0-4.533,1.734,6.728,6.728,0,0,0-1.746,4.987q0,3.468,1.937,5.007a6.959,6.959,0,0,0,4.466,1.538,6.215,6.215,0,0,0,4.771-1.823,4.1,4.1,0,0,0,1.228-2.261h-3.385a2.729,2.729,0,0,1-.683.86,2.834,2.834,0,0,1-1.838.572,3.4,3.4,0,0,1-1.83-.472,2.988,2.988,0,0,1-1.328-2.638h9.238A15.91,15.91,0,0,0,292.336,176.2Zm-9.044.324a3.39,3.39,0,0,1,.884-1.935,2.666,2.666,0,0,1,1.979-.716,2.944,2.944,0,0,1,1.968.673,2.735,2.735,0,0,1,.883,1.979Z" transform="translate(-264.705 -167.103)" fill="#e9f1ff"/>
        </g>
      </g>
    </g>
  </g>
</svg>
