<svg xmlns="http://www.w3.org/2000/svg" width="46" height="47" viewBox="0 0 46 47">
  <g id="instagram" transform="translate(-894 -3964)">
    <g id="Rectangle_22" data-name="Rectangle 22" transform="translate(894 3964)" fill="none" stroke="#eff6f6" stroke-width="1">
      <rect width="46" height="47" rx="23" stroke="none"/>
      <rect x="0.5" y="0.5" width="45" height="46" rx="22.5" fill="none"/>
    </g>
    <g id="ig" transform="translate(906 3977)">
      <path id="Path_6" data-name="Path 6" d="M102.957,91H92.888A1.89,1.89,0,0,0,91,92.888v10.069a1.89,1.89,0,0,0,1.888,1.888h10.069a1.89,1.89,0,0,0,1.888-1.888V92.888A1.89,1.89,0,0,0,102.957,91Zm-5.034,11.327a4.405,4.405,0,1,1,4.405-4.405A4.41,4.41,0,0,1,97.922,102.327Zm4.405-7.552a1.259,1.259,0,1,1,1.259-1.259A1.26,1.26,0,0,1,102.327,94.776Zm0,0" transform="translate(-87.182 -87.182)" fill="#e9f1ff"/>
      <path id="Path_7" data-name="Path 7" d="M184.147,181a3.147,3.147,0,1,0,3.147,3.147A3.15,3.15,0,0,0,184.147,181Zm0,0" transform="translate(-173.406 -173.406)" fill="#e9f1ff"/>
      <path id="Path_8" data-name="Path 8" d="M18.292,0H3.188A3.222,3.222,0,0,0,0,3.188v15.1A3.222,3.222,0,0,0,3.188,21.48h15.1a3.222,3.222,0,0,0,3.188-3.188V3.188A3.222,3.222,0,0,0,18.292,0Zm.629,15.775a3.15,3.15,0,0,1-3.147,3.147H5.706a3.15,3.15,0,0,1-3.147-3.147V5.706A3.15,3.15,0,0,1,5.706,2.559H15.775a3.15,3.15,0,0,1,3.147,3.147Zm0,0" fill="#e9f1ff"/>
    </g>
  </g>
</svg>
