<svg xmlns="http://www.w3.org/2000/svg" width="28.962" height="24.095" viewBox="0 0 28.962 24.095">
  <g id="right-arrow" transform="translate(0 -41.346)">
    <g id="Group_9" data-name="Group 9" transform="translate(0 41.346)">
      <path id="Path_1" data-name="Path 1" d="M28.5,52.268,18.04,41.808a1.59,1.59,0,0,0-2.242,0l-.95.95a1.573,1.573,0,0,0-.463,1.121,1.6,1.6,0,0,0,.463,1.134l6.1,6.115H1.565A1.547,1.547,0,0,0,0,52.687V54.03a1.606,1.606,0,0,0,1.565,1.628H21.02l-6.171,6.149a1.57,1.57,0,0,0,0,2.226l.95.947a1.59,1.59,0,0,0,2.242,0L28.5,54.518a1.6,1.6,0,0,0,0-2.25Z" transform="translate(0 -41.346)" fill="#e63946"/>
    </g>
  </g>
</svg>
