<?xml version="1.0" encoding="utf-8"?>
<!-- Generator: Adobe Illustrator 25.3.1, SVG Export Plug-In . SVG Version: 6.00 Build 0)  -->
<svg version="1.1" xmlns="http://www.w3.org/2000/svg" xmlns:xlink="http://www.w3.org/1999/xlink" x="0px" y="0px"
	 viewBox="0 0 1665.8 947.2" style="enable-background:new 0 0 1665.8 947.2;" xml:space="preserve">
<style type="text/css">
	.st0{display:none;}
	.st1{display:inline;fill:none;stroke:#FF0000;stroke-width:15;stroke-miterlimit:10;}
	.st2{display:inline;fill:#FF0000;}
	.st3{display:inline;fill:#FFFFFF;stroke:#FF0000;stroke-width:15;stroke-miterlimit:10;}
	.st4{display:inline;fill:#141314;}
	.st5{fill:none;stroke:#E63946;stroke-width:15;stroke-miterlimit:10;}
	.st6{fill:#E63946;}
	.st7{fill:none;}
</style>
<g id="Layer_1" class="st0">
	
		<image style="display:inline;overflow:visible;" width="2000" height="2000" xlink:href="C:\Users\user\Desktop\Untitled-4.jpg"  transform="matrix(1 0 0 1 -167.3331 -519.2485)">
	</image>
	<path class="st1" d="M1062.1,298.9L978.8,91.3L1062.1,298.9z"/>
	<path class="st2" d="M911-97.7l-0.3-0.1L536.3,849.4h153.2C789,597.7,888.5,345.9,988,94.1L911-97.7z"/>
	<path class="st3" d="M457.5,841.9h322.3H457.5z"/>
	<path class="st2" d="M925,455.2c25.2-6.9,95.7-22.6,167.1,12.1c64.4,31.3,95.6,87.1,108.7,110.5c15.1,27,27.4,64.3,52.1,138.9
		c13.6,41.3,23.5,75.4,55.9,97.2c15.8,10.7,31.8,14.8,42.7,16.7c0.5,4.9,1,9.9,1.5,14.8c-20.6,3.1-49.5,5.7-83.7,3.1
		c-30.1-2.3-69.7-5.3-106.2-24.5c-66.9-35.1-94.2-108.8-110.3-152.2c-11.4-30.7-13.2-47.7-38.8-120.5
		c-12.2-34.6-23.8-65.1-52.7-78.5c-13.6-6.3-26.8-6.8-36.1-6.3C925,462.6,925,458.9,925,455.2z"/>
	<circle class="st2" cx="1539.3" cy="697.8" r="151.7"/>
</g>
<g id="Layer_3" class="st0">
	<rect x="-167.1" y="-526.4" class="st4" width="2000" height="2000"/>
</g>
<g id="Layer_2">
	<g>
		<path class="st5" d="M1037,396.7L953.6,189L1037,396.7z"/>
		<path class="st6" d="M885.8,0.1L885.5,0L511.2,947.2h153.2c99.5-251.8,199-503.5,298.5-755.3L885.8,0.1z"/>
		<path class="st5" d="M432.4,939.7h322.3H432.4z"/>
		<path class="st6" d="M899.8,552.9c25.2-6.9,95.7-22.6,167.1,12.1c64.4,31.3,95.6,87.1,108.7,110.5c15.1,27,27.4,64.3,52.1,138.9
			c13.6,41.3,23.5,75.4,55.9,97.2c15.8,10.7,31.8,14.8,42.7,16.7c0.5,4.9,1,9.9,1.5,14.8c-20.6,3.1-49.5,5.7-83.7,3.1
			c-30.1-2.3-69.7-5.3-106.2-24.5c-66.9-35.1-94.2-108.8-110.3-152.2c-11.4-30.7-13.2-47.7-38.8-120.5
			c-12.2-34.6-23.8-65.1-52.7-78.5c-13.6-6.3-26.8-6.8-36.1-6.3C899.8,560.4,899.8,556.7,899.8,552.9z"/>
		<circle class="st6" cx="1514.1" cy="795.5" r="151.7"/>
		<path class="st5" d="M681.3,587.8L521.2,189L681.3,587.8z"/>
		<path class="st6" d="M453.4,0.1L453.2,0L78.8,947.2H232c99.5-251.8,199-503.5,298.5-755.3L453.4,0.1z"/>
		<path class="st5" d="M0,939.7h322.3H0z"/>
	</g>
	<rect x="-158.1" y="-526.4" class="st7" width="1991" height="1991"/>
</g>
</svg>
